#!OML:ASF F:\VICON\USERDATA\INSTALL\rory3\rory3.ASF
:FULLY-SPECIFIED
:DEGREES
2859
root -0.43408 18.0466 -7.4639 10.3014 -54.9256 13.3932
lowerback 14.9154 -2.95684 -1.75729
upperback 5.5406 -4.1218 7.16917
thorax -1.77006 -2.26207 9.33264
lowerneck -9.86749 -9.68551 -12.0466
upperneck 28.9473 -14.5554 8.65404
head 12.8271 -6.89274 3.15898
rclavicle 7.63333e-014 -7.95139e-014
rhumerus 21.3538 -8.59162 -82.4086
rradius 33.9255
rwrist -36.5303
rhand -36.3204 -27.829
rfingers 7.12502
rthumb -9.41896 -57.5985
lclavicle 7.63333e-014 -7.95139e-014
lhumerus 16.595 -50.0182 86.4342
lradius 52.7661
lwrist 13.7176
lhand -10.0749 47.7234
lfingers 7.12502
lthumb 15.9115 -1362.91
rfemur -41.4993 -2.0177 9.51938
rtibia 32.9644
rfoot -13.0843 -9.54576
rtoes 10.6106
lfemur -21.9885 -4.28815 -14.5154
ltibia 15.8011
lfoot -0.946902 8.44756
ltoes -26.4683
2860
root -0.47403 18.0622 -7.49686 10.0352 -54.9236 13.6125
lowerback 14.9223 -2.8892 -1.72213
upperback 5.59039 -4.03195 7.27956
thorax -1.7293 -2.22325 9.42037
lowerneck -9.87979 -9.79497 -12.1755
upperneck 28.8154 -14.65 8.61685
head 12.7968 -6.94799 3.14675
rclavicle -9.54166e-015 -1.08139e-013
rhumerus 20.1338 -7.45082 -82.7752
rradius 34.5575
rwrist -37.3187
rhand -36.5505 -27.9726
rfingers 7.12502
rthumb -9.64097 -57.732
lclavicle -9.54166e-015 -1.08139e-013
lhumerus 14.709 -49.7398 87.2719
lradius 52.6452
lwrist 14.0122
lhand -10.2088 47.6928
lfingers 7.12502
lthumb 15.7825 -1362.93
rfemur -41.2253 -2.00021 9.55828
rtibia 32.7062
rfoot -13.1296 -9.50967
rtoes 11.303
lfemur -22.2199 -4.85683 -14.2902
ltibia 16.4059
lfoot -0.540642 8.81991
ltoes -26.9569
2861
root -0.511242 18.0781 -7.53354 9.82779 -54.8875 13.7446
lowerback 14.9933 -2.68485 -1.53912
upperback 5.5833 -3.73475 7.30568
thorax -1.83771 -2.06868 9.30422
lowerneck -9.60723 -9.98369 -11.983
upperneck 28.5717 -14.9719 8.65676
head 12.668 -7.07243 3.08792
rclavicle 3.02153e-014 -2.38542e-014
rhumerus 18.7931 -7.09469 -83.4245
rradius 35.0736
rwrist -37.871
rhand -36.796 -27.8299
rfingers 7.12502
rthumb -9.87787 -57.5782
lclavicle 3.02153e-014 -2.38542e-014
lhumerus 12.7542 -50.16 88.0204
lradius 52.7704
lwrist 15.1214
lhand -10.9669 48.554
lfingers 7.12502
lthumb 15.0523 -1362.01
rfemur -40.9528 -2.02546 9.69017
rtibia 32.4876
rfoot -13.1108 -9.45697
rtoes 11.3475
lfemur -22.5105 -5.35281 -14.0256
ltibia 17.1205
lfoot -0.135413 9.04502
ltoes -27.2493
2862
root -0.547997 18.0905 -7.57198 9.62352 -54.9113 13.9019
lowerback 15.0751 -2.44073 -1.44616
upperback 5.53044 -3.3932 7.3619
thorax -1.99842 -1.89065 9.26953
lowerneck -9.09424 -10.1196 -11.833
upperneck 28.1632 -15.2225 8.74119
head 12.4221 -7.178 3.0784
rclavicle 1.1291e-013 -4.45278e-014
rhumerus 17.3772 -6.40214 -83.8065
rradius 35.5346
rwrist -38.5642
rhand -36.9987 -27.7684
rfingers 7.12502
rthumb -10.0734 -57.5073
lclavicle 1.1291e-013 -4.45278e-014
lhumerus 10.4702 -50.157 89.1402
lradius 52.6543
lwrist 15.0547
lhand -10.4022 48.4209
lfingers 7.12502
lthumb 15.5963 -1362.19
rfemur -40.7626 -2.07504 9.84524
rtibia 32.3295
rfoot -13.0123 -9.30127
rtoes 11.3346
lfemur -22.8404 -5.14749 -13.9334
ltibia 17.8666
lfoot 0.311431 8.55857
ltoes -27.1687
2863
root -0.585499 18.0965 -7.60128 9.19787 -55.0423 14.2743
lowerback 15.2229 -2.57894 -1.7969
upperback 5.50038 -3.61906 7.78842
thorax -2.01252 -2.01904 10.0054
lowerneck -8.94418 -9.87554 -13.0106
upperneck 28.05 -14.6508 8.78826
head 12.3858 -7.04819 3.38536
rclavicle 6.20208e-014 -4.6118e-014
rhumerus 16.1394 -3.46416 -83.6224
rradius 35.9443
rwrist -39.7128
rhand -37.107 -27.8337
rfingers 7.12502
rthumb -10.1778 -57.5675
lclavicle 6.20208e-014 -4.6118e-014
lhumerus 8.00147 -48.5227 90.5811
lradius 52.5981
lwrist 14.8205
lhand -10.2058 48.5977
lfingers 7.12502
lthumb 15.7854 -1362.03
rfemur -40.5704 -2.04792 9.8049
rtibia 32.2365
rfoot -12.9423 -9.06384
rtoes 11.3734
lfemur -23.0866 -4.25408 -14.1953
ltibia 18.5695
lfoot 0.750247 7.48746
ltoes -27.2541
2864
root -0.621897 18.1016 -7.62391 8.73482 -55.2306 14.7218
lowerback 15.074 -2.02902 -1.27275
upperback 5.68124 -2.84149 7.35056
thorax -1.94141 -1.6201 9.06249
lowerneck -8.90876 -10.4219 -11.739
upperneck 27.7731 -15.6593 8.82792
head 12.2833 -7.35364 3.0301
rclavicle -5.88403e-014 1.43125e-014
rhumerus 14.7666 -3.91971 -84.4103
rradius 36.4698
rwrist -40.4288
rhand -37.1835 -27.7775
rfingers 7.12502
rthumb -10.2517 -57.5076
lclavicle -5.88403e-014 1.43125e-014
lhumerus 6.66423 -50.2913 90.3037
lradius 52.7371
lwrist 15.3277
lhand -10.4567 48.8587
lfingers 7.12502
lthumb 15.5438 -1361.75
rfemur -40.466 -2.15192 9.76655
rtibia 32.2102
rfoot -12.7205 -8.73993
rtoes 10.8593
lfemur -23.3027 -3.8014 -14.4258
ltibia 19.174
lfoot 1.16049 6.98594
ltoes -27.5009
2865
root -0.658081 18.11 -7.64862 8.25591 -55.412 15.2023
lowerback 14.9866 -1.98706 -1.15146
upperback 5.84476 -2.78799 7.35517
thorax -1.7356 -1.6047 8.97545
lowerneck -9.11167 -10.4964 -11.9911
upperneck 27.7357 -15.6785 8.81539
head 12.3361 -7.37661 3.04934
rclavicle 4.45278e-014 4.13472e-014
rhumerus 13.6677 -2.50851 -85.1905
rradius 36.8253
rwrist -40.8984
rhand -36.8278 -27.5649
rfingers 7.12502
rthumb -9.90854 -57.3118
lclavicle 4.45278e-014 4.13472e-014
lhumerus 4.87234 -49.5264 90.8996
lradius 52.6041
lwrist 15.4136
lhand -10.9995 49.1159
lfingers 7.12502
lthumb 15.0209 -1361.45
rfemur -40.4046 -2.30487 9.72469
rtibia 32.243
rfoot -12.599 -8.36306
rtoes 11.0267
lfemur -23.467 -4.02609 -14.4702
ltibia 19.6493
lfoot 1.5606 7.13832
ltoes -27.8005
